<?xml version="1.0" encoding="UTF-8" standalone="no"?>
<svg
   xmlns:dc="http://purl.org/dc/elements/1.1/"
   xmlns:cc="http://creativecommons.org/ns#"
   xmlns:rdf="http://www.w3.org/1999/02/22-rdf-syntax-ns#"
   xmlns:svg="http://www.w3.org/2000/svg"
   xmlns="http://www.w3.org/2000/svg"
   xmlns:sodipodi="http://sodipodi.sourceforge.net/DTD/sodipodi-0.dtd"
   xmlns:inkscape="http://www.inkscape.org/namespaces/inkscape"
   width="4259.0688"
   height="2195.6982"
   id="svg3064"
   version="1.1"
   inkscape:version="0.48.3.1 r9886"
   sodipodi:docname="marker.svg">
  <metadata
     id="metadata3078">
    <rdf:RDF>
      <cc:Work
         rdf:about="">
        <dc:format>image/svg+xml</dc:format>
        <dc:type
           rdf:resource="http://purl.org/dc/dcmitype/StillImage" />
      </cc:Work>
    </rdf:RDF>
  </metadata>
  <defs
     id="defs3076" />
  <sodipodi:namedview
     pagecolor="#ffffff"
     bordercolor="#666666"
     borderopacity="1"
     objecttolerance="10"
     gridtolerance="10"
     guidetolerance="10"
     inkscape:pageopacity="0"
     inkscape:pageshadow="2"
     inkscape:window-width="1248"
     inkscape:window-height="674"
     id="namedview3074"
     showgrid="false"
     inkscape:zoom="0.14292221"
     inkscape:cx="905.49196"
     inkscape:cy="1143.4766"
     inkscape:window-x="65"
     inkscape:window-y="24"
     inkscape:window-maximized="0"
     inkscape:current-layer="svg3064"
     fit-margin-top="250"
     fit-margin-left="250"
     fit-margin-right="250"
     fit-margin-bottom="250" />
  <title
     id="title3066">marker</title>
  <g
     id="g3068"
     transform="matrix(0.96018299,0,0,0.96018299,-261.5459,12.194381)">
    <title
       id="title3070">Layer 1</title>
    <path
       id="svg_2"
       d="M 1075.9399,1959.629 C 1037.1741,1769.328 968.82404,1610.964 886.03699,1464.1891 824.63001,1355.317 753.49304,1254.8261 687.67297,1149.2511 665.70099,1114.0071 646.73901,1076.774 625.62598,1040.197 583.41003,967.06006 549.18201,882.26202 551.35699,772.26502 c 2.125,-107.47297 33.20801,-193.68396 78.02997,-264.172 73.71906,-115.93497 197.20105,-210.98898 362.88404,-235.969 135.4661,-20.42398 262.4751,14.08204 352.543,66.74802 73.6001,43.03799 130.596,100.52701 173.92,168.28 45.22,70.716 76.359,154.26001 78.971,263.23199 1.337,55.83002 -7.805,107.53199 -20.684,150.41797 -13.0339,43.40906 -33.996,79.695 -52.646,118.4541 -36.406,75.6589 -82.049,144.9819 -127.855,214.346 -136.437,206.6059 -264.4961,417.3099 -320.5801,706.0269 z"
       stroke-miterlimit="10"
       clip-rule="evenodd"
       inkscape:connector-curvature="0"
       style="fill:#007fff;fill-rule:evenodd;stroke:#000000;stroke-width:37;stroke-miterlimit:10" />
    <circle
       id="svg_4"
       r="183.33203"
       cy="740.047"
       cx="1080.546"
       clip-rule="evenodd"
       d="m 1263.8781,740.047 c 0,101.25148 -82.0806,183.33203 -183.3321,183.33203 -101.25146,0 -183.33201,-82.08055 -183.33201,-183.33203 0,-101.25149 82.08055,-183.33203 183.33201,-183.33203 101.2515,0 183.3321,82.08054 183.3321,183.33203 z"
       sodipodi:cx="1080.546"
       sodipodi:cy="740.047"
       sodipodi:rx="183.33203"
       sodipodi:ry="183.33203"
       style="fill:#000000;fill-rule:evenodd" />
  </g>
  <text
     xml:space="preserve"
     style="font-size:117.01879883px;font-style:normal;font-weight:normal;line-height:150%;letter-spacing:0px;word-spacing:0px;fill:#000000;fill-opacity:1;stroke:none;font-family:Sans"
     x="1336.858"
     y="1858.0713"
     id="text3080"
     sodipodi:linespacing="150%"><tspan
       sodipodi:role="line"
       id="tspan3082"
       x="1336.858"
       y="1858.0713"
       style="font-size:421.26763916px;line-height:150%">Market Maps</tspan></text>
</svg>
